<svg xmlns="http://www.w3.org/2000/svg" viewBox="0 0 100 100" role="img" aria-hidden="true">
  <rect width="100" height="100" rx="12" fill="#FF7A00" opacity="0.12"/>
  <g fill="none" stroke="#FF7A00" stroke-width="2.2" stroke-linejoin="round">
    <!-- open book / reading -->
    <path d="M50 25v50" stroke-linecap="round"/>
    <path d="M22 32c0-2 1.5-3 3.5-3h20c3 0 4.5 1 4.5 4v44c-2-1.5-4-2-6.5-2H25c-1.6 0-3-1.4-3-3.2V32Z" fill="#fff" fill-opacity="0.95"/>
    <path d="M78 32c0-2-1.5-3-3.5-3h-20c-3 0-4.5 1-4.5 4v44c2-1.5 4-2 6.5-2H75c1.6 0 3-1.4 3-3.2V32Z" fill="#fff" fill-opacity="0.95"/>
  </g>
  <path d="M32 40h10M58 40h10M32 48h6M58 48h6M32 56h8M58 56h8" stroke="#E96F00" stroke-width="1.8" stroke-linecap="round" opacity="0.55"/>
</svg>
