<?xml version="1.0" encoding="UTF-8"?>
<svg id="Layer_2" data-name="Layer 2" xmlns="http://www.w3.org/2000/svg" viewBox="0 0 96.3 96.3">
  <defs>
    <style>
      .cls-1 {
        fill: #581d1c;
      }

      .cls-2 {
        fill: #444545;
      }

      .cls-3 {
        fill: #f47a20;
      }

      .cls-4 {
        fill: #f1b052;
      }

      .cls-5 {
        fill: #fbece2;
      }
    </style>
  </defs>
  <g id="Layer_1-2" data-name="Layer 1">
    <g>
      <rect class="cls-3" width="96.3" height="96.3"/>
      <path class="cls-5" d="M85.47,58.78c-6.18.37-16.35-3.74-25.97-4.93l-2.86-2.89-3.69,1.93-4.79.31-4.79-.31-3.63-2.38-2.92,3.34c-9.62,1.2-19.79,5.3-25.97,4.93L.26,61.48v2.85s8.26,4.8,8.89,5.16c12.48,6.98,25.61,10.54,38.73,10.66h0c.09,0,.17,0,.26,0,.09,0,.17,0,.26,0h0c13.13-.12,26.26-3.68,38.73-10.66.63-.35,8.89-5.16,8.89-5.16v-2.85l-10.57-2.7Z"/>
      <path d="M53.54,53.17c1.84,1.36-.55,5.02-4.48,6.42-.53.19-1.54.07-2.05-.1-1.69-.58-2.81-1.62-4.05-2.92-.88-.92-1.18-2.86.15-3.68,3.09-1.9,7.57-1.84,10.44.28Z"/>
      <path d="M49.06,59.59c-.26,2.23,1.2,3.92,2.94,4.78,4.16,2.05,5.94-2.32,7.7-1.61-.89,2.63-3.34,3.54-5.73,3.72-2.11.16-4.2-1.61-5.86-2.72-1.88,1.3-3.86,3.02-6.37,2.71-4.6-.57-6.07-4.66-4.72-4.07,1.55.67,3.26,3.71,7.12,2,1.85-.82,3.29-2.5,2.86-4.92.51.17,1.53.29,2.05.1Z"/>
      <g>
        <path class="cls-1" d="M90.87,41.33c0,9.7-7.86,17.57-17.56,17.57s-17.56-7.87-17.56-17.57,7.86-17.57,17.56-17.57,17.56,7.87,17.56,17.57ZM80.57,39.97c0-5.52-4.48-10-10-10s-10,4.48-10,10,4.48,10,10,10,10-4.48,10-10Z"/>
        <path class="cls-1" d="M40.65,41.33c0,9.7-7.86,17.56-17.56,17.56s-17.56-7.86-17.56-17.56,7.86-17.56,17.56-17.56,17.56,7.86,17.56,17.56ZM35.89,39.97c0-5.52-4.47-9.99-9.99-9.99s-9.99,4.47-9.99,9.99,4.47,9.99,9.99,9.99,9.99-4.47,9.99-9.99Z"/>
        <circle cx="70.57" cy="39.97" r="10"/>
        <circle cx="25.9" cy="39.97" r="9.99"/>
        <path class="cls-4" d="M93.69,38.53c-1.37-10.04-9.97-17.78-20.38-17.78s-18.59,7.36-20.27,17.04c-1.2-.78-2.3-1.31-4.77-1.31s-3.72.56-4.89,1.39c-1.64-9.72-10.1-17.12-20.28-17.12S4.09,28.48,2.71,38.51v-.03s-1.96.47-2.71.27v4.5c0,.22,2.54-.08,2.71.94,0,.05.01.09.02.13.03.18.06.35.09.52.06.36.06.36.06.36v-.03c1.8,9.53,10.16,16.74,20.22,16.74,11.37,0,20.58-9.21,20.58-20.58,0-.35,0-.71-.03-1.06,1.34-.64,2.36-1.06,4.71-1.06,2.17,0,3.07.36,4.41.92-.02.4-.04.8-.04,1.2,0,11.37,9.21,20.58,20.58,20.58,10.52,0,19.19-7.9,20.42-18.09.39-.58,2.57-.41,2.57-.6v-4.52c-.59.16-2.37-.05-2.61-.17ZM23.09,58.89c-9.7,0-17.56-7.86-17.56-17.56s7.86-17.56,17.56-17.56,17.56,7.86,17.56,17.56-7.86,17.56-17.56,17.56ZM73.31,58.89c-9.7,0-17.56-7.86-17.56-17.56s7.86-17.56,17.56-17.56,17.56,7.86,17.56,17.56-7.86,17.56-17.56,17.56Z"/>
      </g>
      <ellipse class="cls-2" cx="48.3" cy="53.22" rx="2.21" ry=".63"/>
    </g>
  </g>
</svg>